<svg width="14" height="14" viewBox="0 0 14 14" fill="none" xmlns="http://www.w3.org/2000/svg">
<path d="M4.69804 0C3.5594 0 2.46739 0.452324 1.66225 1.25747C0.857109 2.06261 0.404785 3.15461 0.404785 4.29326V9.30205C0.404785 10.4407 0.857109 11.5327 1.66225 12.3378C2.46739 13.143 3.5594 13.5953 4.69804 13.5953H9.70684C10.8455 13.5953 11.9375 13.143 12.7426 12.3378C13.5478 11.5327 14.0001 10.4407 14.0001 9.30205V5.72434C14.0001 5.53457 13.9247 5.35257 13.7905 5.21838C13.6563 5.08419 13.4743 5.0088 13.2846 5.0088H12.569C12.3792 5.0088 12.1972 4.93341 12.063 4.79922C11.9289 4.66503 11.8535 4.48303 11.8535 4.29326C11.8535 3.15461 11.4011 2.06261 10.596 1.25747C9.79086 0.452324 8.69885 0 7.56021 0H4.69804ZM4.69804 3.57771H7.56021C7.95376 3.57771 8.27575 3.89971 8.27575 4.29326C8.27575 4.6868 7.95376 5.0088 7.56021 5.0088H4.69804C4.30449 5.0088 3.9825 4.6868 3.9825 4.29326C3.9825 3.89971 4.30449 3.57771 4.69804 3.57771ZM4.69804 8.58651H9.70684C10.1004 8.58651 10.4224 8.9085 10.4224 9.30205C10.4224 9.6956 10.1004 10.0176 9.70684 10.0176H4.69804C4.30449 10.0176 3.9825 9.6956 3.9825 9.30205C3.9825 8.9085 4.30449 8.58651 4.69804 8.58651Z" fill="white"/>
</svg>
