<svg width="17" height="16" viewBox="0 0 17 16" fill="none" xmlns="http://www.w3.org/2000/svg">
<path d="M5.29437 0C2.75348 0 0.665527 2.08509 0.665527 4.62884V11.1131C0.665527 13.654 2.75062 15.7419 5.29437 15.7419H11.7786C14.3195 15.7419 16.4075 13.6568 16.4075 11.1131V4.62956C16.4075 2.08795 14.3224 0 11.7786 0H5.29437ZM5.29437 1.43109H11.7786C12.1987 1.43052 12.6148 1.51285 13.003 1.67335C13.3912 1.83385 13.744 2.06938 14.041 2.36643C14.3381 2.66348 14.5736 3.01622 14.7341 3.40445C14.8946 3.79267 14.9769 4.20875 14.9764 4.62884V11.1131C14.9769 11.5332 14.8946 11.9493 14.7341 12.3375C14.5736 12.7257 14.3381 13.0785 14.041 13.3755C13.744 13.6726 13.3912 13.9081 13.003 14.0686C12.6148 14.2291 12.1987 14.3114 11.7786 14.3109H5.29509C4.87493 14.3115 4.45878 14.2293 4.07047 14.0688C3.68216 13.9083 3.32933 13.6728 3.03221 13.3758C2.73508 13.0787 2.49949 12.7259 2.33894 12.3377C2.1784 11.9494 2.09605 11.5332 2.09661 11.1131V4.62956C2.09595 4.20941 2.17821 3.79325 2.33867 3.40494C2.49913 3.01663 2.73464 2.66381 3.0317 2.36668C3.32876 2.06955 3.68154 1.83396 4.06981 1.67342C4.45808 1.51287 4.87422 1.43052 5.29437 1.43109ZM12.7625 2.99669C12.6772 2.99631 12.5928 3.01282 12.514 3.04527C12.4351 3.07771 12.3635 3.12545 12.3032 3.18572C12.243 3.246 12.1952 3.31762 12.1628 3.39644C12.1303 3.47526 12.1138 3.55973 12.1142 3.64497C12.1142 4.00561 12.4019 4.29326 12.7625 4.29326C12.8478 4.29373 12.9323 4.27729 13.0112 4.24489C13.0902 4.21248 13.1619 4.16476 13.2222 4.10448C13.2826 4.04419 13.3304 3.97255 13.3628 3.89367C13.3953 3.8148 13.4119 3.73027 13.4115 3.64497C13.4119 3.55967 13.3953 3.47514 13.3628 3.39627C13.3304 3.3174 13.2826 3.24575 13.2222 3.18547C13.1619 3.12519 13.0902 3.07746 13.0112 3.04506C12.9323 3.01266 12.8478 2.99622 12.7625 2.99669ZM8.5365 3.57771C6.17521 3.57771 4.24324 5.50968 4.24324 7.87097C4.24324 10.2323 6.17521 12.1642 8.5365 12.1642C10.8978 12.1642 12.8298 10.2323 12.8298 7.87097C12.8298 5.50968 10.8978 3.57771 8.5365 3.57771ZM8.5365 5.0088C10.1271 5.0088 11.3987 6.28032 11.3987 7.87097C11.3987 9.46162 10.1271 10.7331 8.5365 10.7331C6.94584 10.7331 5.67432 9.46162 5.67432 7.87097C5.67432 6.28032 6.94584 5.0088 8.5365 5.0088Z" fill="white"/>
</svg>
